<svg width="116" height="141" viewBox="0 0 116 141" fill="none" xmlns="http://www.w3.org/2000/svg">
<path opacity="0.38" d="M1.9007 87.3469L53.3563 138.803C55.8919 141.338 59.9966 141.338 62.5322 138.803L113.988 87.3469C118.078 83.2563 115.179 76.2798 109.407 76.2798H6.49569C0.723927 76.2798 -2.17597 83.2703 1.9147 87.3469H1.9007Z" fill="white"/>
<path opacity="0.48" d="M1.9007 49.2141L53.3563 100.67C55.8919 103.205 59.9966 103.205 62.5322 100.67L113.988 49.2141C118.078 45.1234 115.179 38.1469 109.407 38.1469H6.49569C0.723927 38.1469 -2.17597 45.1374 1.9147 49.2141H1.9007Z" fill="white"/>
<path opacity="0.69" d="M1.9007 11.0672L53.3563 62.5228C55.8919 65.0584 59.9966 65.0584 62.5322 62.5228L113.988 11.0672C118.078 6.9765 115.179 0 109.407 0H6.49569C0.723927 0 -2.17597 6.99051 1.9147 11.0672H1.9007Z" fill="white"/>
</svg>
