<svg width="458" height="316" viewBox="0 0 458 316" fill="none" xmlns="http://www.w3.org/2000/svg">
<path d="M310.846 96.9612L302.728 114.105L324.603 160.504H340.943L310.898 96.9744" fill="white"/>
<path d="M220.579 97.2642L223.531 90.8072L224.572 88.4747L228.63 79.7511L191.087 0.118591L189.308 3.92693L188.504 5.58731L116.37 160.504H132.658L191.575 35.9486" fill="white"/>
<path d="M306.853 88.422L267.096 4.17731V3.99283L265.185 0L263.406 3.92694L228.749 79.3822L228.63 79.6852V79.7511L224.638 88.4747L223.531 90.8072L220.579 97.2642L221.501 99.2277L223.28 102.97L263.775 188.743L265.554 192.486L267.333 188.743L302.794 114.092L310.964 96.948L306.853 88.4088V88.422ZM265.567 157.974L236.379 96.0914L265.633 35.6851L294.453 96.7635L265.567 157.96V157.974Z" fill="white"/>
<path d="M74.0698 226.049C72.7125 225.311 71.2498 224.824 69.5894 224.455C56.8071 221.45 47.7145 227.222 47.7145 227.222C47.7145 227.222 46.3572 228.079 44.8945 229.436C43.7876 228.079 42.4961 226.919 40.9016 226.063C39.6102 225.325 38.1343 224.837 36.5398 224.468C25.7869 221.885 17.6168 226.247 15.337 227.657V225.074H0.406738V289.289H15.337V245.355C15.337 242.166 16.1408 239.701 17.7353 238.107C19.3298 236.447 21.6623 235.656 24.7986 235.656C27.7504 235.656 30.0169 236.46 31.5587 238.054C33.1005 239.649 33.8911 242.047 33.8911 245.302V289.302H48.7028V245.486C48.7028 242.166 49.4408 239.715 50.9826 238.107C52.5243 236.447 54.725 235.656 57.6241 235.656C60.8131 235.656 63.2114 236.46 64.8191 238.054C66.4136 239.649 67.2174 242.047 67.2174 245.302V289.302H82.1477V242.297C82.1477 238.37 81.4756 235.05 80.0525 232.282C78.6952 229.515 76.679 227.486 74.0961 226.076L74.0698 226.049Z" fill="white"/>
<path d="M127.65 226.168C124.092 224.692 119.902 223.888 114.934 223.888C107.989 223.888 102.52 225.43 98.5275 228.435C94.5346 231.439 92.3208 235.748 91.9518 241.335L105.841 242.192C106.21 239.86 107.132 238.081 108.608 236.789C110.15 235.498 112.114 234.878 114.631 234.878C117.635 234.878 119.981 235.616 121.641 237.026C123.301 238.436 124.105 240.466 124.105 243.114V250.678H114.209C106.157 250.678 100.135 252.457 96.1423 255.963C92.1495 259.468 90.1201 264.752 90.1201 271.815C90.1201 277.903 91.7805 282.502 95.0354 285.52C98.2903 288.59 103.206 290.132 109.663 290.132C112.983 290.132 115.803 289.645 118.083 288.656C120.363 287.668 122.142 286.139 123.367 284.176C123.618 283.741 123.855 283.319 124.039 282.819V289.21H138.35V243.062C138.35 239.069 137.428 235.63 135.583 232.744C133.923 229.924 131.221 227.71 127.65 226.168ZM124.211 270.353C124.211 273.304 123.288 275.571 121.509 277.047C119.73 278.523 117.029 279.261 113.458 279.261C110.453 279.261 108.174 278.641 106.632 277.482C105.09 276.309 104.352 274.411 104.352 271.894C104.352 268.455 105.209 265.806 106.869 264.093C108.529 262.367 111.112 261.51 114.486 261.51H124.132V270.353H124.198H124.211Z" fill="white"/>
<path d="M216.625 271.275L204.094 225.061H189.282L210.854 289.276H222.463L243.903 225.061H229.157L216.625 271.275Z" fill="white"/>
<path d="M275.74 267.704L262.708 225.061H247.896L270.021 288.59L267.742 297.011C267.07 299.475 265.831 301.254 264.118 302.361C262.391 303.468 259.94 304.022 256.738 304.022H253.786V316H256.607C260.665 316 264.17 315.565 267.109 314.709C270.061 313.852 272.459 312.561 274.357 310.834C276.268 309.108 277.546 306.907 278.35 304.193L302.003 224.929H287.192L275.701 267.691L275.74 267.704Z" fill="white"/>
<path d="M367.47 270.353C367.47 273.001 366.732 275.018 365.19 276.441C363.649 277.864 361.382 278.589 358.364 278.589C355.347 278.589 352.896 277.851 351.169 276.375C349.443 274.899 348.586 272.817 348.586 270.05V244.92C348.586 241.968 349.443 239.701 351.169 238.041C352.896 236.381 355.281 235.577 358.364 235.577C361.448 235.577 363.583 236.381 365.124 237.909C366.666 239.451 367.404 241.718 367.404 244.604V245.592H381.965V244.551C381.9 240.07 381.043 236.249 379.264 233.244C377.485 230.174 374.902 227.894 371.331 226.366C367.826 224.824 363.398 224.033 358.18 224.033C352.961 224.033 348.6 224.837 344.963 226.432C341.339 228.026 338.571 230.358 336.674 233.495C334.763 236.631 333.854 240.373 333.854 244.683V270.3C333.854 274.477 334.776 278.101 336.674 281.119C338.585 284.123 341.286 286.403 344.963 287.945C348.586 289.487 353.014 290.277 358.18 290.277C363.345 290.277 367.826 289.539 371.397 288.063C374.955 286.587 377.604 284.374 379.383 281.422C381.162 278.47 382.084 274.846 382.15 270.419V269.377L367.523 269.496V270.353H367.457H367.47Z" fill="white"/>
<path d="M426.466 226.168C423.027 224.692 418.85 223.888 414.053 223.888C409.256 223.888 405.026 224.626 401.521 226.168C398.016 227.71 395.38 229.858 393.535 232.744C391.691 235.63 390.768 239.069 390.768 243.128V270.59C390.768 274.701 391.691 278.272 393.535 281.158C395.38 284.11 398.016 286.324 401.521 287.853C405.026 289.381 409.204 290.132 414.053 290.132C418.902 290.132 423.027 289.394 426.466 287.853C429.906 286.377 432.554 284.163 434.399 281.211C436.178 278.325 437.101 274.82 437.101 270.708V243.062C437.101 239.003 436.178 235.564 434.399 232.678C432.554 229.91 429.919 227.697 426.466 226.168ZM422.223 270.287C422.223 272.804 421.485 274.767 420.075 276.124C418.665 277.482 416.57 278.22 413.869 278.22C411.167 278.22 409.256 277.548 407.78 276.124C406.305 274.767 405.567 272.804 405.567 270.287V243.8C405.567 241.335 406.305 239.372 407.78 238.028C409.256 236.671 411.286 235.933 413.869 235.933C416.451 235.933 418.599 236.605 420.075 238.028C421.485 239.385 422.223 241.349 422.223 243.8V270.287Z" fill="white"/>
<path d="M457.552 276.678H442.741V289.21H457.552V276.678Z" fill="white"/>
<path d="M163.599 227.762L163.23 228.013V225.061H148.299V289.276H163.23V250.692C163.296 246.633 163.296 242.087 167.341 239.082C168.751 238.041 170.477 237.54 172.507 237.356C173.311 237.29 174.286 237.237 175.459 237.29H175.828C178.226 237.409 181.178 237.909 184.248 239.201C184.433 237.659 184.433 237.237 184.433 237.237L185.474 225.68C184.67 225.496 183.813 225.311 183.009 225.193C171.518 223.282 163.599 227.776 163.599 227.776V227.762Z" fill="white"/>
</svg>
